PathFileType	4	(X/Y/Z)	C:\Users\°ÂÌØÂü\Desktop\20210112\bx_n_10_901-Unnamed.trc
DataRate	CameraRate	NumFrames	NumMarkers	Units	OrigDataRate	OrigDataStartFrame	OrigNumFrames
50.00	50.00	       4	0	mm	50.00	260	       518
Frame#	Time	
		

260	5.180	-265.74023	93.29083	1545.09473	-659.43109	300.00430	156.71764	-958.08282	67.94443	1076.91052	-744.32251	-26.02448	804.66406	-752.94427	200.41092	817.84351	-483.03442	251.47777	1349.94897	-843.19165	263.62924	732.52301	-474.53503	-81.11552	1335.69519	-846.41528	242.16074	627.91669	-754.39978	2.70702	524.01215	-767.67694	200.27808	535.42041	-852.30127	252.70589	485.01367	-518.03857	-73.07183	143.01378	-548.89417	-28.11731	162.94179	-761.06592	-23.51000	1017.87524	-791.93549	39.51439	171.38405	-597.62054	23.44072	169.37215	-671.10297	51.51929	164.35883	-719.37573	158.37170	221.62221	-797.81708	180.95087	180.91585	-772.68756	230.53810	201.28470	-594.39465	222.34335	174.18840	-882.67010	295.99960	144.53152	-556.47900	254.74124	164.94353	-568.18427	81.52405	1145.81665	-622.62848	307.88406	157.76900	-528.09686	303.96701	146.45338	-820.60065	-51.02753	606.24487	-831.80701	-92.32515	862.53741	-839.43054	-57.13427	469.01920	-763.61151	-22.13493	200.11394	-875.95648	-78.79716	141.44162	-830.83057	-79.45863	745.61548	-831.67108	240.15723	564.52698	-723.99506	63.90115	221.07939	-817.87476	-47.01673	557.16418	-675.15076	176.72345	163.67543	-607.40869	-77.93694	155.83377	-650.16553	-70.58349	159.26857	-778.18079	222.09862	1037.73389	-791.41437	137.50162	567.94635	-865.92883	268.49194	864.97131	
261	5.200	-256.14569	93.00851	1525.63367	-659.36249	300.02075	156.74063	-961.97986	67.37244	1077.09167	-748.68219	-26.23937	804.85095	-757.94427	200.51758	817.27435	-477.41296	251.28842	1336.20923	-847.50873	264.04367	731.30560	-468.86667	-81.04022	1321.49353	-849.51849	242.35852	627.17981	-756.87854	2.34936	523.75684	-770.14734	200.02573	535.07648	-854.08423	252.50798	483.91974	-517.93164	-72.96082	143.01994	-548.89417	-28.11731	162.94179				-791.88373	39.19172	170.98395	-597.54425	23.45586	169.43442	-671.28772	51.49355	164.66595	-719.37573	158.37170	221.62221	-797.76147	180.87782	180.82916	-772.70612	230.41641	201.15208	-594.60681	222.50052	173.99066	-882.62714	295.87161	144.54532	-556.62012	254.82112	164.84103	-567.99237	82.29495	1134.88916	-622.71875	307.79169	157.90372	-528.05951	304.00421	146.45946	-823.66296	-50.85966	605.53668	-837.22296	-90.79036	860.16125	-841.24023	-57.50473	468.15802	-763.77747	-22.37011	199.78053	-875.86938	-78.74750	141.09407	-834.38287	-79.95920	744.84235	-834.02155	239.38106	563.64771	-724.73004	63.50989	221.57286	-820.27759	-47.24924	556.46045	-675.22321	176.84253	163.64285	-607.34534	-78.03753	155.90529	-650.16553	-70.58349	159.26857	-781.93207	221.17046	1034.17163	-793.51813	136.90944	567.71436	-870.56372	268.53351	864.06378	-764.62372	-24.69721	1015.32135	
262	5.220	-247.56163	92.95913	1506.53821	-659.03082	300.04578	156.94121	-964.29071	67.92433	1076.83337	-752.87842	-26.54521	803.85718	-762.10443	200.70088	816.41528	-471.42902	250.86314	1321.89746	-850.76520	264.62082	730.30780	-463.62723	-79.99607	1306.71753	-851.74280	242.45625	626.40454	-758.78809	2.63452	523.76080	-772.22742	199.93066	535.21997	-856.00452	253.13171	483.18103	-517.84998	-72.84688	143.13808	-548.90088	-28.05321	162.99600				-792.50085	39.10824	170.98688	-597.73041	23.38572	169.24431	-671.44690	51.02052	164.85500	-719.55011	158.77664	221.56749	-797.78912	181.00728	180.73006	-772.67468	230.49583	201.09464	-594.17590	222.34070	174.36070	-882.59131	295.82736	144.56377	-556.60992	254.81958	164.46478				-622.66821	307.64746	157.91022	-528.07904	304.01016	146.51689	-826.72705	-51.21764	604.81750	-841.12787	-91.81947	859.74548	-843.34497	-57.59652	467.67355	-763.91980	-22.12632	199.58635	-875.89648	-78.67019	141.22737	-838.11981	-80.34883	743.50769	-836.82990	239.25291	562.91089	-725.23779	63.85849	221.69872	-822.84271	-47.79274	555.86060	-675.41492	176.77412	163.60425	-607.47430	-77.95808	155.74725	-650.26868	-70.53520	159.23430	-786.42633	221.75253	1032.34106	-796.55603	136.83121	566.96716	-874.64136	268.51080	862.91663	
263	5.240	-239.46864	93.38539	1487.13281	-659.15649	299.97763	156.77887	-968.88019	66.51750	1078.04980	-756.98529	-26.57177	803.85992	-765.66583	200.43304	815.78833	-466.00641	251.08153	1307.75098	-853.49054	264.52106	729.07629	-458.49460	-79.61728	1292.12451	-854.62677	242.39198	625.77991	-760.90826	2.46629	523.49908	-774.65289	199.43861	534.39697	-858.30554	253.30960	482.75064	-518.03491	-72.95267	143.03249	-549.05548	-27.87208	163.16479				-792.27258	38.73429	170.71719	-597.73962	23.33560	169.28941	-671.56897	50.97910	165.14542	-719.59283	158.77155	221.63808	-797.84393	181.00374	180.67416	-772.95276	230.65068	200.87216	-593.94611	222.13672	174.53580	-882.79047	295.93942	144.57480	-556.62616	254.62534	164.41574				-622.68787	307.52176	157.80354	-528.10516	303.90503	146.48770	-829.47162	-51.69074	604.18097	-845.12939	-92.37383	859.38245	-845.49475	-57.69625	466.78305	-763.96350	-22.13527	199.37187	-875.89130	-78.80043	141.02431	-842.01917	-80.84801	742.85406	-839.18018	239.41182	562.57581	-725.23242	63.39774	221.52846	-825.56525	-47.58968	554.86560	-675.22321	176.84253	163.64285	-607.56537	-77.77662	155.55089	-650.25153	-70.59896	159.14474	-789.75330	221.84222	1029.85046	-799.46863	136.87517	566.89703	-879.15625	268.64563	861.83942	
